<mxfile host="app.diagrams.net" modified="2023-10-13T04:58:37.719Z" agent="Mozilla/5.0 (Windows NT 10.0; Win64; x64) AppleWebKit/537.36 (KHTML, like Gecko) Chrome/117.0.0.0 Safari/537.36" version="22.0.4" etag="Fwt9ApHFUg8MnIUgeNUI" type="github">
  <diagram name="Page-1" id="JiLO0WCpx9aYiRnJ_w1Z">
    <mxGraphModel>
      <root>
        <mxCell id="0" />
        <mxCell id="1" parent="0" />
      </root>
    </mxGraphModel>
  </diagram>
</mxfile>
